<svg xmlns="http://www.w3.org/2000/svg" viewBox="0 0 30 30" width="256" height="256"><path fill="var(--system-global-body)" d="M29.232 24.525l-3.939-3.94A2.012 2.012 0 0 0 23.879 20H21.5v-2.36a4.03 4.03 0 0 0-2.437-3.736 4.031 4.031 0 0 0-4.4.727 3.043 3.043 0 0 1-3.323.55 3.042 3.042 0 0 1-1.84-2.82V10h2.379c.526 0 1.042-.213 1.414-.586l3.94-3.94A2.604 2.604 0 0 0 18 3.622 2.624 2.624 0 0 0 15.379 1h-.471C14.7.42 14.15 0 13.5 0h-9c-.651 0-1.2.42-1.408 1h-.47A2.624 2.624 0 0 0 0 3.621c0 .7.272 1.358.768 1.854l3.939 3.94c.372.372.888.585 1.414.585H8.5v2.36a4.03 4.03 0 0 0 2.437 3.736c1.505.66 3.189.381 4.4-.727a3.046 3.046 0 0 1 3.323-.55 3.042 3.042 0 0 1 1.84 2.82V20h-2.379c-.526 0-1.042.213-1.414.586l-3.94 3.94A2.604 2.604 0 0 0 12 26.378 2.624 2.624 0 0 0 14.621 29h.471c.207.58.757 1 1.408 1h9c.651 0 1.2-.42 1.408-1h.47A2.624 2.624 0 0 0 30 26.379c0-.7-.272-1.358-.768-1.854zM5.414 8.707l-3.94-3.94A1.623 1.623 0 0 1 2.62 2h.472c.207.582.757 1.001 1.408 1.001h9c.651 0 1.2-.42 1.408-1h.47a1.623 1.623 0 0 1 1.147 2.768l-3.94 3.939A1.009 1.009 0 0 1 11.88 9H6.12c-.263 0-.52-.107-.707-.293zM27.38 28h-.471c-.207-.58-.757-1-1.408-1h-9c-.651 0-1.2.42-1.408 1h-.47a1.623 1.623 0 0 1-1.147-2.768l3.94-3.939c.186-.186.443-.293.706-.293h5.758c.263 0 .52.107.707.293l3.94 3.94A1.623 1.623 0 0 1 27.38 28z" class="color303C42 svgShape"></path></svg>