<svg xmlns="http://www.w3.org/2000/svg" viewBox="0 0 512 512" width="256" height="256"><path d="M481.19 147.3c11-11 22.81-20 22.81-39.64a40.37 40.37 0 0 0-11.91-28.74L473.9 60.73l13.28-13.29a16 16 0 1 0-22.62-22.62L451.27 38.1l-18.19-18.19A40.37 40.37 0 0 0 404.34 8C385 8 376.24 19.26 364.7 30.81l-10.63-10.63a40.7 40.7 0 0 0-57.49 0l-7.12 7.12a40.69 40.69 0 0 0 0 57.48L347 142.35 142.45 346.92l-57.57-57.56a40.69 40.69 0 0 0-57.48 0l-7.12 7.13a40.67 40.67 0 0 0 0 57.47l10.63 10.64L20 375.5a40.7 40.7 0 0 0 0 57.5l18.2 18.19-13.39 13.37C14.7 474.67 22 491.87 36.13 491.87a16 16 0 0 0 11.31-4.68l13.39-13.39L79 492a40.7 40.7 0 0 0 57.48 0l10.9-10.91c10.63 10.63 19.71 22.52 39.37 22.52 19 0 28.31-11.45 35.87-19a40.69 40.69 0 0 0 0-57.48l-57.56-57.57L369.65 165l57.57 57.56a40.69 40.69 0 0 0 57.48 0l7.12-7.12a40.7 40.7 0 0 0 0-57.49Zm-83-104.77a8.63 8.63 0 0 1 12.22 0l59 59a8.63 8.63 0 0 1 0 12.22l-10.53 10.54-71.19-71.23ZM107.76 471.9a8.59 8.59 0 0 1-6.11-2.53l-59-59a8.64 8.64 0 0 1 0-12.22l10.53-10.54 71.25 71.25c-10.92 10.87-12.04 13.04-16.67 13.04ZM200 462l-7.12 7.13a8.67 8.67 0 0 1-12.23 0L42.9 331.34a8.66 8.66 0 0 1 0-12.23c7.38-7.38 8.76-9.65 13.24-9.65a8.61 8.61 0 0 1 6.12 2.54L200 449.74a8.66 8.66 0 0 1 0 12.26Zm269.2-269.21-7.13 7.12a8.66 8.66 0 0 1-12.23 0L312.09 62.16a8.66 8.66 0 0 1 0-12.23c7.38-7.38 8.75-9.65 13.24-9.65a8.64 8.64 0 0 1 6.11 2.52L469.2 180.56a8.66 8.66 0 0 1 0 12.23Z" data-name="35. Barbell" fill="var(--system-global-body)" class="color000 svgShape"></path></svg>