<svg xmlns="http://www.w3.org/2000/svg" enable-background="new 0 0 272.78 280.508" viewBox="0 0 272.78 280.508" width="256" height="256"><path d="M140.045 169.508h63.215c13.785 0 25 11.215 25 25v74.5h-6.667c-2.292 0-4.167 1.875-4.167 4.167l0 0h-3.667c-2.017 0-3.667 1.65-3.667 3.667v0c0 2.017 1.65 3.667 3.667 3.667h39c2.017 0 3.667-1.65 3.667-3.667v0c0-2.017-1.65-3.667-3.667-3.667h-3.667l0 0c0-2.292-1.875-4.167-4.167-4.167h-6.667v-74.5c0-19.299-15.701-35-35-35h-60.996l-.575 5.412C141.51 166.615 140.925 168.172 140.045 169.508zM121.205 162.745l.344-3.237H53.167c-19.299 0-35 15.701-35 35v74.5H11.5c-2.292 0-4.167 1.875-4.167 4.167v0H3.667c-2.017 0-3.667 1.65-3.667 3.667v0c0 2.017 1.65 3.667 3.667 3.667h39c2.017 0 3.667-1.65 3.667-3.667v0c0-2.017-1.65-3.667-3.667-3.667H39v0c0-2.292-1.875-4.167-4.167-4.167h-6.667v-74.5c0-13.785 11.215-25 25-25h69.685C121.533 167.517 120.949 165.151 121.205 162.745z" style="" class="color000 svgShape"></path><circle style="stroke:var(--system-global-backgropund);"  cx="68.447" cy="84.166" r="22.5" transform="rotate(-10.796 68.427 84.164)"  class="color000 svgShape"></circle><path d="M251.122,3.992l-41.734,44.92l-38.92,15.341c-0.314,0.074-0.629,0.149-0.957,0.232
		c-16.456,5.482-37.087,4.466-51.349,4.394c-10.314-0.955-21.313,4.962-21.805,13.744c-0.454,8.084,5.348,18.269,18.216,21.564
		l-5.061-11.554c-2.279-5.203,0.1-11.289,5.302-13.567c1.314-0.575,2.703-0.867,4.129-0.867c4.092,0,7.797,2.421,9.438,6.169
		l9.662,22.056c11.362-0.044,21.776-1.987,35.62-6.333c9.54-3.813,12.93-9.612,13.683-15.619l33.85-13.343
		c1.739-0.685,3.301-1.752,4.574-3.121l43.667-47c4.699-5.058,4.408-12.967-0.649-17.665C263.73-1.357,255.821-1.065,251.122,3.992z
		" style="stroke:var(--system-global-backgropund);" class="color000 svgShape"></path><path style="stroke:var(--system-global-backgropund);" d="M126.275,85.29c-1.773-4.047-6.491-5.89-10.538-4.118c-4.047,1.772-5.891,6.491-4.118,10.538l15.648,35.722l-3.775,35.556
		c-0.467,4.394,2.717,8.333,7.11,8.8c0.287,0.03,0.572,0.046,0.854,0.046c4.039-0.001,7.51-3.05,7.945-7.156l4-37.667
		c0.147-1.383-0.069-2.781-0.627-4.055L126.275,85.29z" class="color000 svgShape"></path></svg>