<?xml version="1.0" encoding="iso-8859-1"?>
<!-- Uploaded to: SVG Repo, www.svgrepo.com, Generator: SVG Repo Mixer Tools -->
<!DOCTYPE svg PUBLIC "-//W3C//DTD SVG 1.1//EN" "http://www.w3.org/Graphics/SVG/1.1/DTD/svg11.dtd">
<svg  height="50px" width="50px" version="1.1" id="Capa_1" xmlns="http://www.w3.org/2000/svg" xmlns:xlink="http://www.w3.org/1999/xlink" 
	 viewBox="0 0 393.479 393.479" xml:space="preserve">
<path d="M275.686,175.122c3.276,3.738,2.902,9.424-0.835,12.701c-1.708,1.497-3.823,2.232-5.929,2.232
	c-2.502,0-4.992-1.038-6.771-3.067c-11.757-13.413-28.64-21.105-46.321-21.105c-4.971,0-9.002-4.029-9.002-9s4.027-9,8.998-9
	C238.695,147.882,260.512,157.811,275.686,175.122z M393.479,245.723v44.146c0,4.971-4.029,9-9,9H9c-4.971,0-9-4.029-9-9v-44.146
	c0-4.971,4.029-9,9-9h16.851c15.172-81.551,87.284-142.113,170.888-142.113h0.004c83.601,0,155.713,60.563,170.89,142.113h16.847
	C389.449,236.723,393.479,240.752,393.479,245.723z M44.196,236.723h305.09c-14.904-71.442-78.729-124.113-152.544-124.113h-0.004
	C122.921,112.609,59.097,165.28,44.196,236.723z M375.479,254.723H18v26.146h357.479V254.723z"/>
</svg>