<svg xmlns="http://www.w3.org/2000/svg" enable-background="new 0 0 576.505 319.926" viewBox="0 0 576.505 319.926" width="256" height="256"><circle cx="288.253" cy="102.927" r="22.5" style="stroke:var(--system-global-backgropund);" class="color000 svgShape"></circle><path d="M36.6538 13.2631c0-1.2207-.9897-2.2104-2.2105-2.2104s-2.2105.9897-2.2105 2.2104c0 1.2209.9897 2.2106 2.2105 2.2106S36.6538 14.484 36.6538 13.2631zM104.6749 13.2631c0 1.2209.9897 2.2106 2.2105 2.2106s2.2106-.9896 2.2106-2.2106c0-1.2207-.9897-2.2104-2.2106-2.2104S104.6749 12.0424 104.6749 13.2631z" style="stroke:var(--system-global-backgropund);" class="color000 svgShape"></path><path d="M433.0672,116.9369c2.3719,0,4.2947-1.9229,4.2947-4.2948c0-0.8502-0.2548-1.6377-0.681-2.3046l34.5102-33.6497
		c1.3953,1.0137,3.1032,1.62,4.9498,1.62h4.6948v3.5685h3.4105v227.4395h-18.8v10.6105h107.4948v-10.6105h-12.821V127.421h-21.0737
		V26.5262h5.6369c5.4099,0,10.0839-3.2861,12.1414-7.9578h19.6808V7.9579h-19.6808C554.767,3.2861,550.0929,0,544.683,0h-77.6843
		c-5.4099,0-10.0839,3.2861-12.1414,7.9579H121.6479C119.5904,3.2861,114.9164,0,109.5065,0H31.8222
		c-5.4099,0-10.0839,3.2861-12.1414,7.9579H0v10.6106h19.6808c2.0575,4.6716,6.7314,7.9578,12.1414,7.9578h5.6368V127.421H16.3854
		v181.8948H3.5643v10.6105h107.4948v-10.6105h-18.8V81.8763h3.4105v-3.5685h4.6947c1.8466,0,3.5546-0.6063,4.9498-1.62
		l34.5102,33.6497c-0.4262,0.6669-0.681,1.4543-0.681,2.3046c0,2.3719,1.9228,4.2948,4.2947,4.2948
		c0.8897,0,1.7162-0.2706,2.4017-0.7339l14.8733,14.5023l-2.6855,11.5494c-0.4902,2.1055,0.0166,4.2705,1.3901,5.9404
		c1.3208,1.6055,3.2466,2.5127,5.3135,2.5127c0.0815,0,0.1636-0.001,0.2451-0.0039l7.1304-0.2441h0.0005
		c3.1079-0.1074,5.771-2.2979,6.4766-5.3271l0.4294-1.8472c0.2797,0.1,0.5658,0.1885,0.8616,0.2583l44.9688,10.6104
		c0.6035,0.1426,1.2197,0.2139,1.8369,0.2139c0.4526,0,0.9058-0.0381,1.354-0.1152l33.1724-5.6971v50.9033l-8.5302,104.59
		c-0.5547,6.8071,4.5136,12.7726,11.3183,13.3273c6.8047,0.5542,12.7734-4.5099,13.3281-11.3174l7.4286-91.084h7.0021l7.4286,91.084
		c0.5547,6.8075,6.5234,11.8716,13.3281,11.3174c6.8047-0.5547,11.8731-6.5201,11.3184-13.3273l-8.5303-104.5908v-50.9023
		l33.1723,5.697c0.4482,0.0771,0.9014,0.1152,1.354,0.1152c0.6172,0,1.2334-0.0713,1.8369-0.2139l44.9688-10.6104
		c0.2959-0.0698,0.5822-0.1584,0.8619-0.2583l0.4296,1.8472c0.7051,3.0293,3.3682,5.2197,6.4761,5.3271l7.1299,0.2441
		c0.082,0.0029,0.1641,0.0039,0.2456,0.0039c2.0674,0,3.9932-0.9072,5.314-2.5127c1.3735-1.6699,1.8804-3.835,1.3906-5.9404
		l-2.6858-11.5496l14.873-14.5022C431.351,116.6663,432.1775,116.9369,433.0672,116.9369z M475.5093,73.0026
		c-0.2711,0-0.5295-0.0447-0.7806-0.1089c0.1202-0.4868,0.02-1.0183-0.356-1.4036c-0.4586-0.4709-1.1442-0.5601-1.7071-0.2946
		c-0.1957-0.4109-0.3142-0.8654-0.3142-1.3508c0-1.744,1.4138-3.1578,3.1579-3.1578c1.744,0,3.1579,1.4138,3.1579,3.1578
		S477.2534,73.0026,475.5093,73.0026z M494.8567,81.8763h3.4105V57.8131h-3.4105V26.5262h19.0316V127.421h-12.7368v181.8948h-6.2947
		V81.8763z M534.7304,127.421h-10.2316V26.5262h10.2316V127.421z M547.5567,13.2631c0,3.0347-2.4601,5.4949-5.4948,5.4949
		s-5.4948-2.4602-5.4948-5.4949s2.4601-5.4946,5.4948-5.4946S547.5567,10.2284,547.5567,13.2631z M469.6199,7.7684
		c3.0346,0,5.4947,2.46,5.4947,5.4946s-2.4601,5.4949-5.4947,5.4949c-3.0347,0-5.4948-2.4602-5.4948-5.4949
		S466.5852,7.7684,469.6199,7.7684z M112.3801,13.2631c0,3.0347-2.4601,5.4949-5.4948,5.4949s-5.4948-2.4602-5.4948-5.4949
		s2.4601-5.4946,5.4948-5.4946S112.3801,10.2284,112.3801,13.2631z M28.9485,13.2631c0-3.0347,2.4601-5.4946,5.4948-5.4946
		s5.4948,2.46,5.4948,5.4946s-2.4601,5.4949-5.4948,5.4949S28.9485,16.2977,28.9485,13.2631z M41.7748,26.5262h10.2316V127.421
		H41.7748V26.5262z M81.6486,309.3158h-6.2947V127.421H62.6169V26.5262h19.0316v31.2869H78.238v24.0632h3.4105V309.3158z
		 M97.838,69.8447c0-1.744,1.4138-3.1578,3.1579-3.1578s3.1579,1.4138,3.1579,3.1578c0,0.4854-0.1184,0.9398-0.3141,1.3507
		c-0.5632-0.2659-1.2489-0.1764-1.7072,0.2947c-0.376,0.3853-0.4762,0.9167-0.356,1.4036c-0.251,0.0642-0.5095,0.1089-0.7806,0.1089
		C99.2518,73.0026,97.838,71.5887,97.838,69.8447z M171.9699,146.4618l-7.1313,0.2441c-0.8999,0.043-1.7559-0.3525-2.332-1.0518
		c-0.5762-0.7012-0.7891-1.6094-0.583-2.4932l2.2921-9.8566c0.3239-0.0415,0.6399-0.1637,0.8856-0.4159
		c0.5786-0.5928,0.5664-1.543-0.0264-2.1211l-0.2195-0.2141l2.5745-11.071c0.2051-0.8838,0.7969-1.6055,1.623-1.9795
		c0.3833-0.1738,0.7896-0.2607,1.1953-0.2607c0.4678,0,0.9341,0.1152,1.3628,0.3447l6.2905,3.3662
		c1.1509,0.6152,1.748,1.9336,1.4521,3.2051l-1.0115,4.3505c-2.1459,0.9987-3.8312,2.9293-4.4167,5.4122
		c-0.5898,2.4996,0.0695,4.9976,1.5647,6.8542l-0.8025,3.4514C174.3918,145.4979,173.2741,146.4169,171.9699,146.4618z
		 M413.9987,145.6542c-0.5757,0.7002-1.4185,1.0781-2.333,1.0518l-7.1304-0.2441c-1.3042-0.0449-2.4219-0.9639-2.7173-2.2354
		l-0.8027-3.4518c1.4951-1.8567,2.1543-4.3544,1.5645-6.8539c-0.5856-2.4822-2.2715-4.4126-4.4168-5.4115l-1.0119-4.3512
		c-0.2954-1.2715,0.3018-2.5898,1.4521-3.2051l6.2915-3.3662c0.7993-0.4277,1.7314-0.459,2.5576-0.084
		c0.8262,0.374,1.418,1.0957,1.623,1.9795l2.5747,11.0709l-0.2197,0.2142c-0.5928,0.5781-0.605,1.5283-0.0264,2.1211
		c0.2458,0.2523,0.562,0.3745,0.8859,0.416l2.2923,9.8564C414.7878,144.0448,414.5749,144.953,413.9987,145.6542z M412.9719,118.576
		c-0.4897-2.1055-1.8994-3.8252-3.8682-4.7168c-1.9692-0.8926-4.1919-0.8193-6.0962,0.2002l-6.2915,3.3662
		c-2.7422,1.4678-4.1655,4.6094-3.4609,7.6387l0.6393,2.749c-0.3121,0.0356-0.6249,0.0844-0.9382,0.1582l-43.3828,10.2363
		l-40.3813-6.9355c-0.2008-0.0344-0.4004-0.0527-0.5999-0.0718c-0.3352-0.0444-0.6747-0.0753-1.0221-0.0753h-38.6348
		c-0.3483,0-0.6886,0.0311-1.0247,0.0757c-0.1987,0.0189-0.3975,0.0372-0.5974,0.0714l-40.3813,6.9355l-43.3828-10.2363
		c-0.3134-0.0737-0.6264-0.1224-0.9385-0.1581l0.6392-2.7491c0.7051-3.0293-0.7183-6.1709-3.4609-7.6387l-6.2905-3.3662
		c-1.9058-1.0186-4.1265-1.0918-6.0967-0.2002c-1.9688,0.8916-3.3784,2.6113-3.8682,4.7168l-2.0259,8.7129l-13.9251-13.5779
		c0.0886-0.3435,0.1505-0.6976,0.1505-1.069c0-2.3719-1.9229-4.2948-4.2947-4.2948c-0.4085,0-0.7958,0.0753-1.1701,0.1819
		l-34.8681-33.9985c0.9-1.3441,1.4277-2.9561,1.4277-4.6859c0-4.6547-3.8084-8.4633-8.4632-8.4633h-4.6947v-3.5684h-3.4105V26.5262
		h17.2474c5.4099,0,10.0839-3.2861,12.1414-7.9578h333.2096c2.0575,4.6716,6.7314,7.9578,12.1414,7.9578h17.2474v31.2869h-3.4105
		v3.5684h-4.6948c-4.6547,0-8.4631,3.8086-8.4631,8.4633c0,1.7299,0.5276,3.3418,1.4276,4.6859l-34.868,33.9985
		c-0.3743-0.1066-0.7616-0.1819-1.1701-0.1819c-2.3719,0-4.2947,1.9229-4.2947,4.2948c0,0.3713,0.0618,0.7255,0.1505,1.069
		l-13.9249,13.5778L412.9719,118.576z" style="stroke:var(--system-global-backgropund);" class="color000 svgShape"></path><path d="M539.8514 13.2631c0 1.2209.9897 2.2106 2.2105 2.2106s2.2105-.9896 2.2105-2.2106c0-1.2207-.9897-2.2104-2.2105-2.2104S539.8514 12.0424 539.8514 13.2631zM469.6199 15.4736c1.2208 0 2.2105-.9896 2.2105-2.2106 0-1.2207-.9897-2.2104-2.2105-2.2104-1.2209 0-2.2106.9897-2.2106 2.2104C467.4093 14.484 468.399 15.4736 469.6199 15.4736z" style="stroke:var(--system-global-backgropund);" class="color000 svgShape"></path></svg>