<svg xmlns="http://www.w3.org/2000/svg" xmlns:xlink="http://www.w3.org/1999/xlink" xmlns:serif="http://www.serif.com/" viewBox="0 0 32 40" version="1.1" xml:space="preserve" style="" x="0px" y="0px" fill-rule="evenodd" clip-rule="evenodd" stroke-linejoin="round" stroke-miterlimit="2"><g transform="matrix(1,0,0,1,-2001.15,0)"><path d="M2007.52,13.606L2005.04,13.606C2004.41,13.606 2003.8,13.858 2003.35,14.306C2002.9,14.755 2002.65,15.364 2002.65,15.998C2002.65,15.999 2002.65,16.001 2002.65,16.002C2002.65,16.636 2002.9,17.245 2003.35,17.694C2003.8,18.142 2004.41,18.394 2005.04,18.394L2007.52,18.394C2008.51,22.64 2012.08,25.772 2016.32,25.772C2020.55,25.772 2024.12,22.637 2025.12,18.394L2029.26,18.394C2029.89,18.394 2030.5,18.142 2030.95,17.694C2031.4,17.245 2031.65,16.636 2031.65,16.002C2031.65,16.001 2031.65,15.999 2031.65,15.998C2031.65,15.364 2031.4,14.755 2030.95,14.306C2030.5,13.858 2029.89,13.606 2029.26,13.606L2025.12,13.606C2024.12,9.363 2020.55,6.228 2016.32,6.228C2012.08,6.228 2008.51,9.36 2007.52,13.606ZM2008.55,18.394C2009.5,22.066 2012.62,24.772 2016.32,24.772C2020.79,24.772 2024.39,20.831 2024.39,16C2024.39,11.169 2020.79,7.228 2016.32,7.228C2012.62,7.228 2009.5,9.934 2008.55,13.606L2011.25,13.606C2012.1,11.445 2014.07,9.945 2016.34,9.945C2019.38,9.945 2021.87,12.645 2021.87,16C2021.87,19.355 2019.38,22.055 2016.34,22.055C2014.07,22.055 2012.1,20.555 2011.25,18.394L2008.55,18.394ZM2015.82,18.37C2015.71,18.386 2015.6,18.394 2015.49,18.394L2012.34,18.394C2013.11,19.971 2014.6,21.055 2016.34,21.055C2016.97,21.055 2017.57,20.912 2018.11,20.655L2015.82,18.37ZM2018.98,11.889C2018.97,11.896 2018.96,11.903 2018.96,11.909L2016.84,14.026C2016.96,14.108 2017.07,14.202 2017.18,14.306C2017.63,14.755 2017.88,15.364 2017.88,15.998L2017.88,16.002C2017.88,16.636 2017.63,17.245 2017.18,17.694C2017.07,17.798 2016.96,17.892 2016.84,17.974L2018.96,20.091L2018.98,20.111C2020.13,19.191 2020.87,17.688 2020.87,16C2020.87,14.312 2020.13,12.809 2018.98,11.889ZM2005.07,14.606L2005.04,14.606C2004.67,14.606 2004.32,14.753 2004.06,15.014C2003.8,15.275 2003.65,15.629 2003.65,15.998L2003.65,16.002C2003.65,16.371 2003.8,16.725 2004.06,16.986C2004.32,17.247 2004.67,17.394 2005.04,17.394C2005.04,17.394 2005.07,17.394 2005.07,17.394C2005.44,17.394 2005.8,17.247 2006.06,16.986C2006.32,16.725 2006.47,16.371 2006.47,16.002L2006.47,15.998C2006.47,15.629 2006.32,15.275 2006.06,15.014C2005.8,14.753 2005.44,14.606 2005.07,14.606ZM2015.49,14.606L2007.02,14.606C2007.31,15.009 2007.47,15.496 2007.47,15.998C2007.47,15.999 2007.47,16.001 2007.47,16.002C2007.47,16.504 2007.31,16.991 2007.02,17.394L2015.49,17.394C2015.86,17.394 2016.21,17.247 2016.47,16.986C2016.73,16.725 2016.88,16.371 2016.88,16.002L2016.88,15.998C2016.88,15.629 2016.73,15.275 2016.47,15.014C2016.21,14.753 2015.86,14.606 2015.49,14.606ZM2025.3,14.606C2025.36,15.061 2025.39,15.527 2025.39,16C2025.39,16.473 2025.36,16.939 2025.3,17.394L2029.26,17.394C2029.63,17.394 2029.98,17.248 2030.24,16.986C2030.51,16.725 2030.65,16.371 2030.65,16.002L2030.65,15.998C2030.65,15.629 2030.51,15.275 2030.24,15.014C2029.98,14.752 2029.63,14.606 2029.26,14.606L2025.3,14.606ZM2018.11,11.345C2017.57,11.088 2016.97,10.945 2016.34,10.945C2014.6,10.945 2013.11,12.029 2012.34,13.606L2015.49,13.606C2015.6,13.606 2015.71,13.614 2015.82,13.63L2018.11,11.345Z"/></g></svg>