<svg xmlns="http://www.w3.org/2000/svg" viewBox="0 0 128 160" x="0px" y="0px"><title>45</title><g data-name="1"><path d="M106.22431,76.41932h-3.13189V46.25852a27.1617,27.1617,0,0,0-21.1225-26.46314c-15.98873-23.126-57.04744-7.23161-57.04744,25.42248V76.41932H21.77569a3.23242,3.23242,0,0,0-3.23114,3.23613v29.78523a9.6935,9.6935,0,1,0,19.387,0V79.65545a3.23242,3.23242,0,0,0-3.23114-3.23613H31.38482V45.21786c0-24.05919,27.31844-37.08642,41.49051-25.78975A16.57112,16.57112,0,0,0,59.49572,35.67825v4.649c0,17.84006,26.94787,17.84006,26.94787,0,0-6.47717.17369-8.61142-.74621-12.29755A20.67621,20.67621,0,0,1,96.63009,46.25852v30.1608H93.29963a3.23242,3.23242,0,0,0-3.23114,3.23613v29.78523a9.6935,9.6935,0,1,0,19.387,0V79.65545a3.23242,3.23242,0,0,0-3.23114-3.23613ZM28.238,112.67681a3.23568,3.23568,0,0,1-3.2312-3.23613V95.89561h6.46234v13.54507a3.23567,3.23567,0,0,1-3.23114,3.23613ZM31.46917,89.425H25.00683V82.89649h6.46234V89.425ZM79.98125,40.32723c0,9.28487-14.02319,9.28487-14.02319,0v-4.649A10.07268,10.07268,0,0,1,76.0089,25.60584c.66509,0,1.32189.03311,1.96878.09271,2.40563,4.77972,2.00357,8.28218,2.00357,14.62868Zm23.01186,42.56926V89.425H96.53083V82.89649ZM99.762,112.67681a3.23563,3.23563,0,0,1-3.23114-3.23613V95.89561h6.46228v13.54507A3.23563,3.23563,0,0,1,99.762,112.67681Z" fill-rule="evenodd"/></g></svg>