<svg xmlns="http://www.w3.org/2000/svg" viewBox="0 0 32 40" x="0px" y="0px"><g data-name="Layer 2"><path d="M31,14.5H29.5V11a.5.5,0,0,0-.5-.5H28a.5.5,0,0,0-.5.5v3.5h-1V2a.5.5,0,0,0-.5-.5H24a.5.5,0,0,0-.5.5V3.5H8.5V2A.5.5,0,0,0,8,1.5H6a.5.5,0,0,0-.5.5V14.5h-1V11a.5.5,0,0,0-.5-.5H3a.5.5,0,0,0-.5.5v3.5H1a.5.5,0,0,0,0,1H2.5V19a.5.5,0,0,0,.5.5H4a.5.5,0,0,0,.5-.5V15.5h1v12H5a.5.5,0,0,0-.5.5v2a.5.5,0,0,0,.5.5H9a.5.5,0,0,0,.5-.5V28a.5.5,0,0,0-.5-.5H8.5v-6H9a.5.5,0,0,0,0-1H8.5v-2H9a.5.5,0,0,0,0-1H8.5v-2h15v2H23a.5.5,0,0,0,0,1h.5v2H23a.5.5,0,0,0,0,1h.5v6H23a.5.5,0,0,0-.5.5v2a.5.5,0,0,0,.5.5h4a.5.5,0,0,0,.5-.5V28a.5.5,0,0,0-.5-.5h-.5v-12h1V19a.5.5,0,0,0,.5.5h1a.5.5,0,0,0,.5-.5V15.5H31a.5.5,0,0,0,0-1Zm-6.5-12h1v12h-1V2.5Zm-18,0h1v12h-1Zm2,27h-3v-1h3Zm-1-2h-1v-12h1Zm1-13v-2H9a.5.5,0,0,0,0-1H8.5v-2H9a.5.5,0,0,0,0-1H8.5v-3h15v3H23a.5.5,0,0,0,0,1h.5v2H23a.5.5,0,0,0,0,1h.5v2Zm18,15h-3v-1h3Zm-1-2h-1v-12h1Z"/></g><text x="0" y="47" fill="#000000" font-size="5px" font-weight="bold" font-family="'Helvetica Neue', Helvetica, Arial-Unicode, Arial, Sans-serif">Created by bastian vieri</text><text x="0" y="52" fill="#000000" font-size="5px" font-weight="bold" font-family="'Helvetica Neue', Helvetica, Arial-Unicode, Arial, Sans-serif">from the Noun Project</text></svg>