<?xml version="1.0" encoding="utf-8"?>
<svg viewBox="0 0 128 160" style="enable-background:new 0 0 128 128;" xmlns="http://www.w3.org/2000/svg">
  <path d="M123,111h-1v-3c0-3.309-2.691-6-6-6h-3c-1.302,0-2.402,0.839-2.816,2H63.415L46.264,67.469  c0.698-1.191,1.345-3.459-0.397-6.965l-1.345-2.352l65.256-26.513l2.293,5.733c0.07,0.176,0.189,0.328,0.343,0.439  c1.104,0.798,2.084,1.198,2.93,1.198c0.387,0,0.745-0.084,1.074-0.252C117.468,38.22,118,36.957,118,35  c0-0.127-0.024-0.253-0.071-0.371l-2.168-5.421l5.607-2.278c2.746-1.088,4.451-2.521,5.213-4.381  c0.776-1.895,0.562-4.158-0.652-6.916c0,0,0-0.001,0-0.001l-2.025-5.058c-2.534-5.336-6.669-6.846-12.274-4.5l-15.001,5.997  c-4.622,1.851-7.166,4.478-4.547,11.322l1.697,3.962L26,54.335V43c0-0.035-0.016-0.064-0.02-0.098  c-0.003-0.027,0.008-0.054,0.003-0.081L24,31.91V27V4c0-1.654-1.346-3-3-3h-2c-1.654,0-3,1.346-3,3v23v4.91l-1.983,10.911  c-0.005,0.027,0.006,0.054,0.003,0.081C14.016,42.936,14,42.965,14,43v68h-3v-2.278c0.595-0.347,1-0.985,1-1.722v-2  c0-1.103-0.897-2-2-2H6c-1.103,0-2,0.897-2,2v2c0,0.737,0.405,1.375,1,1.722V111c-2.206,0-4,1.794-4,4v3c0,2.206,1.794,4,4,4h6v2  c0,1.654,1.346,3,3,3h12c1.654,0,3-1.346,3-3v-2h70v2c0,1.654,1.346,3,3,3h12c1.654,0,3-1.346,3-3v-2h6c2.206,0,4-1.794,4-4v-3  C127,112.794,125.206,111,123,111z M113,104h3c2.206,0,4,1.794,4,4v3h-8v-6C112,104.448,112.448,104,113,104z M26,111v-5h84v5H26z   M34.079,62.395l1.992,3.975c0.792,1.992,2.544,3.335,4.692,3.606L56.736,104H26V65.677L34.079,62.395z M58.946,104L42.921,69.868  c0.681-0.161,1.314-0.444,1.87-0.829L61.206,104H58.946z M44.104,61.444c1.062,2.139,1.172,3.989,0.312,5.209  c-0.688,0.979-2.012,1.509-3.371,1.345c-1.45-0.171-2.586-1.034-3.15-2.444l-1.957-3.914l6.717-2.729L44.104,61.444z   M115.998,35.188c-0.026,1.222-0.316,1.699-0.49,1.788c-0.171,0.086-0.707,0.039-1.69-0.624l-2.186-5.466l2.276-0.925  L115.998,35.188z M93.934,22.643c-2.069-5.411-0.541-7.121,3.438-8.714l15.016-6.004c4.639-1.942,7.635-0.861,9.685,3.449  l1.628,4.071L95.637,26.616L93.934,22.643z M124.449,17.299c0.676,1.83,0.767,3.306,0.281,4.492  c-0.545,1.33-1.886,2.402-4.106,3.282L26,63.518v-7.031L124.449,17.299z M17.983,32.179C17.994,32.12,18,32.06,18,32v-4h4v4  c0,0.06,0.006,0.12,0.017,0.179L23.802,42h-7.604L17.983,32.179z M19,3h2c0.552,0,1,0.448,1,1v22h-4V4C18,3.448,18.448,3,19,3z   M16,44h8v11.788c0,0,0,0,0,0.001v9.199c0,0.001,0,0.003,0,0.004V111h-8V44z M6,105h4l0.002,2H6V105z M7,109h2v2H7V109z M27,124  c0,0.552-0.448,1-1,1H14c-0.552,0-1-0.448-1-1v-2h14V124z M115,124c0,0.552-0.448,1-1,1h-12c-0.552,0-1-0.448-1-1v-2h14V124z   M125,118c0,1.103-0.897,2-2,2H5c-1.103,0-2-0.897-2-2v-3c0-1.103,0.897-2,2-2h118c1.103,0,2,0.897,2,2V118z" style="stroke:var(--system-global-body); stroke-width: 2px;" transform="matrix(0.9999999999999999, 0, 0, 0.9999999999999999, 0, -3.552713678800501e-15)"/>
</svg>