<?xml version="1.0" encoding="utf-8"?>
<svg viewBox="-40.048 -2.868 140.048 127.868" style="shape-rendering: geometricprecision;" xmlns="http://www.w3.org/2000/svg">
  <g transform="matrix(0.1938380002975464, 0, 0, 0.176456019282341, 1.4041910171509073, 67.05628204345703)" style="">
    <path class="fil0" d="M167 9c-87,0 -158,71 -158,158 0,87 71,157 158,157 87,0 157,-70 157,-157 0,-87 -70,-158 -157,-158zm0 124c-19,0 -34,15 -34,34 0,18 15,34 34,34 18,0 34,-16 34,-34 0,-19 -16,-34 -34,-34zm0 8c14,0 26,11 26,26 0,14 -12,26 -26,26 -15,0 -26,-12 -26,-26 0,-15 11,-26 26,-26zm0 -98c-68,0 -124,56 -124,124 0,68 56,123 124,123 68,0 123,-55 123,-123 0,-68 -55,-124 -123,-124zm-68 75c-22,27 -22,71 0,97 -68,51 -69,-149 0,-97zm68 6c23,0 42,19 42,43 0,23 -19,42 -42,42 -24,0 -43,-19 -43,-42 0,-24 19,-43 43,-43zm67 91c23,-26 22,-72 0,-97 69,-52 69,152 0,97zm-67 -180c72,0 131,59 131,132 0,72 -59,131 -131,131 -73,0 -132,-59 -132,-131 0,-73 59,-132 132,-132z" style="width: 40px; block-size: 40px; fill-rule: nonzero; height: 40px; inline-size: 40px;"/>
  </g>
  <g transform="matrix(0.40926399827, 0.264669001102, -0.364505052567, 0.415126919746, 13.516377240858, -940.488523911735)" style="transform-origin: 50.0001px 1002.36px;">
    <path style="fill:var(--system-global-body);stroke:var(--system-global-backgropund);text-indent:0;text-transform:none;direction:ltr;block-progression:tb;baseline-shift:baseline;color:#000000;enable-background:accumulate;" d="m 28.002157,958.36253 c -2.0519,-0.0175 -4.0895,0.82328 -5.5019,2.50088 -2.4994,2.98532 -2.107,7.49276 0.8753,10.00352 l 8.7219,7.34635 c 2.4546,2.06563 5.9441,2.15819 8.503,0.46891 l 0.5001,0.43766 c -1.2238,2.80752 -0.5442,6.2225 1.9069,8.28416 l 8.7531,7.34631 c 1.9772,1.6554 4.6182,2.0405 6.9087,1.2505 l 2.2821,2.7822 c -1.3666,1.81288 -1.8311,4.23758 -1.063,6.53368 l 3.6263,10.8163 c 0.8142,2.433 2.8387,4.158 5.1894,4.6891 l 0.1251,0.7503 c -2.2921,1.1822 -3.9077,3.5418 -3.9077,6.2835 l 0,11.4102 c 0,3.8966 3.231,7.0963 7.1275,7.0963 3.9028,0 7.0962,-3.2044 7.0962,-7.0963 l 0,-11.4102 c 0,-3.665 -2.8299,-6.7132 -6.4084,-7.065 l -0.0312,-0.2501 c 3.5551,-1.3212 5.4725,-5.2869 4.2515,-8.9094 l -3.5951,-10.8163 c -1.0053,-3.00468 -3.8851,-4.90268 -6.9086,-4.84558 -0.6978,0.013 -1.4012,0.1432 -2.0946,0.3751 -0.0554,0.019 -0.1016,0.043 -0.1562,0.062 l -2.2821,-2.75093 c 2.3137,-2.98345 1.8828,-7.33112 -1.0317,-9.78469 l -8.7218,-7.34634 c -1.306,-1.09345 -2.9067,-1.64517 -4.5016,-1.65683 -1.3938,-0.0102 -2.7783,0.40822 -3.9701,1.18792 l -0.5314,-0.43766 c 1.2198,-2.80844 0.5368,-6.21726 -1.907,-8.28417 l -8.7531,-7.31507 c -10e-4,-5e-4 10e-4,-0.0307 0,-0.0313 -1.305,-1.09791 -2.9064,-1.61198 -4.5016,-1.62558 z m -0.0312,3.97015 c 0.6943,0.007 1.3929,0.23366 1.9695,0.719 l 8.7218,7.34633 c 0.7233,0.61184 1.088,1.46634 1.0941,2.34458 l -3.1574,-2.65719 a 2.0009045,2.0009045 0 0 0 -1.3129,-0.50017 2.0009045,2.0009045 0 0 0 -1.2818,3.56375 l 3.1888,2.68845 c -0.8645,0.14555 -1.8044,-0.075 -2.5322,-0.68774 l -8.7218,-7.34634 c -1.3167,-1.10943 -1.4726,-3.02954 -0.3751,-4.34528 0.001,-10e-4 -10e-4,-0.0302 0,-0.0313 0.6243,-0.73908 1.5162,-1.10291 2.407,-1.09413 z m 19.6631,16.53707 c 0.6937,0.006 1.3945,0.2392 1.9695,0.719 l 8.7219,7.34635 c 1.0333,0.8699 1.3432,2.24641 0.9065,3.43871 l -0.3751,-0.43767 a 2.0009045,2.0009045 0 0 0 -1.5944,-0.719 2.0009045,2.0009045 0 0 0 -1.6568,3.06358 c -0.4508,-0.10877 -0.9015,-0.27649 -1.2816,-0.59396 l -8.7219,-7.34634 c -0.7189,-0.60488 -1.0884,-1.49774 -1.0942,-2.37583 l 2.4072,2.03196 a 2.0009045,2.0009045 0 1 0 2.5634,-3.06358 l -2.3759,-2.0007 c 0.1788,-0.0299 0.3503,-0.0641 0.5314,-0.0625 z m 19.5695,21.16375 c 1.064,0.2059 1.9764,0.9642 2.3445,2.0633 l 3.6263,10.7849 a 2.0009045,2.0009045 0 0 0 0,0.031 c 0.4424,1.3074 -0.0414,2.6929 -1.0941,3.47 l -0.2814,-1.8443 a 2.0009045,2.0009045 0 0 0 -1.9069,-1.7506 2.0009045,2.0009045 0 0 0 -2.032,2.3445 l 0.1251,0.8753 c -0.2954,-0.3154 -0.5419,-0.6893 -0.6877,-1.1254 l -3.6263,-10.8163 c -0.2231,-0.6667 -0.1779,-1.3501 0.0313,-1.9694 l 1.7818,2.157 a 2.0093174,2.0093174 0 1 0 3.0949,-2.5634 l -1.3755,-1.6569 z m 6.1896,25.0714 c 1.0248,0.5037 1.7506,1.5232 1.7506,2.751 l 0,11.4102 c 0,1.7102 -1.3755,3.0949 -3.0948,3.0949 -1.7053,0 -3.1261,-1.3895 -3.1261,-3.0949 l 0,-11.4102 c 0,-0.6601 0.2134,-1.2492 0.5627,-1.7508 l 0.3126,2.0633 a 2.0071454,2.0071454 0 1 0 3.9701,-0.594 l -0.3751,-2.4695 z" fill="#000000" fill-opacity="1" fill-rule="evenodd" stroke="none" marker="none" visibility="visible" display="inline" overflow="visible"/>
  </g>
  <g transform="matrix(-0.488660007715, -0.23834399879, 0.222129002213, -0.395958006382, -48.883622620475, -938.499876571615)" style="transform-origin: 50px 1002.36px;">
    <path style="fill:var(--system-global-body);stroke:var(--system-global-backgropund);text-indent:0;text-transform:none;direction:ltr;block-progression:tb;baseline-shift:baseline;color:#000000;enable-background:accumulate;" d="m 28.002157,958.36253 c -2.0519,-0.0175 -4.0895,0.82328 -5.5019,2.50088 -2.4994,2.98532 -2.107,7.49276 0.8753,10.00352 l 8.7219,7.34635 c 2.4546,2.06563 5.9441,2.15819 8.503,0.46891 l 0.5001,0.43766 c -1.2238,2.80752 -0.5442,6.2225 1.9069,8.28416 l 8.7531,7.34631 c 1.9772,1.6554 4.6182,2.0405 6.9087,1.2505 l 2.2821,2.7822 c -1.3666,1.81288 -1.8311,4.23758 -1.063,6.53368 l 3.6263,10.8163 c 0.8142,2.433 2.8387,4.158 5.1894,4.6891 l 0.1251,0.7503 c -2.2921,1.1822 -3.9077,3.5418 -3.9077,6.2835 l 0,11.4102 c 0,3.8966 3.231,7.0963 7.1275,7.0963 3.9028,0 7.0962,-3.2044 7.0962,-7.0963 l 0,-11.4102 c 0,-3.665 -2.8299,-6.7132 -6.4084,-7.065 l -0.0312,-0.2501 c 3.5551,-1.3212 5.4725,-5.2869 4.2515,-8.9094 l -3.5951,-10.8163 c -1.0053,-3.00468 -3.8851,-4.90268 -6.9086,-4.84558 -0.6978,0.013 -1.4012,0.1432 -2.0946,0.3751 -0.0554,0.019 -0.1016,0.043 -0.1562,0.062 l -2.2821,-2.75093 c 2.3137,-2.98345 1.8828,-7.33112 -1.0317,-9.78469 l -8.7218,-7.34634 c -1.306,-1.09345 -2.9067,-1.64517 -4.5016,-1.65683 -1.3938,-0.0102 -2.7783,0.40822 -3.9701,1.18792 l -0.5314,-0.43766 c 1.2198,-2.80844 0.5368,-6.21726 -1.907,-8.28417 l -8.7531,-7.31507 c -10e-4,-5e-4 10e-4,-0.0307 0,-0.0313 -1.305,-1.09791 -2.9064,-1.61198 -4.5016,-1.62558 z m -0.0312,3.97015 c 0.6943,0.007 1.3929,0.23366 1.9695,0.719 l 8.7218,7.34633 c 0.7233,0.61184 1.088,1.46634 1.0941,2.34458 l -3.1574,-2.65719 a 2.0009045,2.0009045 0 0 0 -1.3129,-0.50017 2.0009045,2.0009045 0 0 0 -1.2818,3.56375 l 3.1888,2.68845 c -0.8645,0.14555 -1.8044,-0.075 -2.5322,-0.68774 l -8.7218,-7.34634 c -1.3167,-1.10943 -1.4726,-3.02954 -0.3751,-4.34528 0.001,-10e-4 -10e-4,-0.0302 0,-0.0313 0.6243,-0.73908 1.5162,-1.10291 2.407,-1.09413 z m 19.6631,16.53707 c 0.6937,0.006 1.3945,0.2392 1.9695,0.719 l 8.7219,7.34635 c 1.0333,0.8699 1.3432,2.24641 0.9065,3.43871 l -0.3751,-0.43767 a 2.0009045,2.0009045 0 0 0 -1.5944,-0.719 2.0009045,2.0009045 0 0 0 -1.6568,3.06358 c -0.4508,-0.10877 -0.9015,-0.27649 -1.2816,-0.59396 l -8.7219,-7.34634 c -0.7189,-0.60488 -1.0884,-1.49774 -1.0942,-2.37583 l 2.4072,2.03196 a 2.0009045,2.0009045 0 1 0 2.5634,-3.06358 l -2.3759,-2.0007 c 0.1788,-0.0299 0.3503,-0.0641 0.5314,-0.0625 z m 19.5695,21.16375 c 1.064,0.2059 1.9764,0.9642 2.3445,2.0633 l 3.6263,10.7849 a 2.0009045,2.0009045 0 0 0 0,0.031 c 0.4424,1.3074 -0.0414,2.6929 -1.0941,3.47 l -0.2814,-1.8443 a 2.0009045,2.0009045 0 0 0 -1.9069,-1.7506 2.0009045,2.0009045 0 0 0 -2.032,2.3445 l 0.1251,0.8753 c -0.2954,-0.3154 -0.5419,-0.6893 -0.6877,-1.1254 l -3.6263,-10.8163 c -0.2231,-0.6667 -0.1779,-1.3501 0.0313,-1.9694 l 1.7818,2.157 a 2.0093174,2.0093174 0 1 0 3.0949,-2.5634 l -1.3755,-1.6569 z m 6.1896,25.0714 c 1.0248,0.5037 1.7506,1.5232 1.7506,2.751 l 0,11.4102 c 0,1.7102 -1.3755,3.0949 -3.0948,3.0949 -1.7053,0 -3.1261,-1.3895 -3.1261,-3.0949 l 0,-11.4102 c 0,-0.6601 0.2134,-1.2492 0.5627,-1.7508 l 0.3126,2.0633 a 2.0071454,2.0071454 0 1 0 3.9701,-0.594 l -0.3751,-2.4695 z" fill="#000000" fill-opacity="1" fill-rule="evenodd" stroke="none" marker="none" visibility="visible" display="inline" overflow="visible"/>
  </g>
  <g id="SvgjsG1008" transform="matrix(0.29697704315185547, 0, 0, 0.31483104825019836, -6.331902980804415, -16.734788894653313)" style="">
    <svg xmlns="http://www.w3.org/2000/svg" viewBox="0 0 60 60" width="256" height="256">
      <path style="fill:var(--system-global-body);stroke:var(--system-global-backgropund);" d="M53 13H7a7.008 7.008 0 0 0-7 7v18a7.009 7.009 0 0 0 7 7h10.278A1.993 1.993 0 0 0 19 46h6a1.993 1.993 0 0 0 1.722-1H53a7.009 7.009 0 0 0 7-7V20a7.008 7.008 0 0 0-7-7ZM7 43a5.006 5.006 0 0 1-5-5V24.889A6.973 6.973 0 0 0 7 27h3.233C7.064 28.825 5 31.727 5 35s2.064 6.175 5.233 8Zm10-.037C11.4 42.594 7 39.166 7 35s4.4-7.594 10-7.963ZM19 44V26h6v18Zm8-1V27h17.184A2.966 2.966 0 0 0 44 28v3h-2a1 1 0 0 0 0 2h2v4h-2a1 1 0 0 0 0 2h2v3a2.966 2.966 0 0 0 .184 1Zm21-1a1 1 0 0 1-2 0V28a1 1 0 0 1 2 0Zm10-4a5.006 5.006 0 0 1-5 5h-3.184A2.966 2.966 0 0 0 50 42V28a2.966 2.966 0 0 0-.184-1H53a6.973 6.973 0 0 0 5-2.111Zm-5-13H26.722A1.993 1.993 0 0 0 25 24h-6a1.993 1.993 0 0 0-1.722 1H7a5 5 0 0 1 0-10h46a5 5 0 0 1 0 10Z" fill="#000000" class="color000 svgShape"/>
      <path style="fill:var(--system-global-body);stroke:var(--system-global-backgropund);" d="M31 31a1 1 0 0 0-1 1v1a1 1 0 0 0 2 0v-1a1 1 0 0 0-1-1zm0 6a1 1 0 0 0-1 1v1a1 1 0 0 0 2 0v-1a1 1 0 0 0-1-1zm6-6a1 1 0 0 0-1 1v1a1 1 0 0 0 2 0v-1a1 1 0 0 0-1-1zm0 6a1 1 0 0 0-1 1v1a1 1 0 0 0 2 0v-1a1 1 0 0 0-1-1zm16-4a1 1 0 0 0 2 0v-1a1 1 0 0 0-2 0zm1 4a1 1 0 0 0-1 1v1a1 1 0 0 0 2 0v-1a1 1 0 0 0-1-1z" fill="#000000" class="color000 svgShape"/>
    </svg>
  </g>
</svg>